<?xml version="1.0" encoding="utf-8"?>
<!-- Generator: Adobe Illustrator 19.0.0, SVG Export Plug-In . SVG Version: 6.00 Build 0)  -->
<svg version="1.1" id="Layer_1" xmlns="http://www.w3.org/2000/svg" xmlns:xlink="http://www.w3.org/1999/xlink" x="0px" y="0px"
	 viewBox="-288 183.9 381.5 152" style="enable-background:new -288 183.9 381.5 152;" xml:space="preserve">
<style type="text/css">
	.st0{fill:#FFFFFF;}
</style>
<path id="XMLID_55_" class="st0" d="M-261.1,308.7v-94.5h41.7c15.1,0,28,13,28,28.1c0,6.4-2.4,12.3-6,17
	c6.4,5.2,10.7,13.1,10.7,21.7c0,15-12.7,27.7-27.7,27.7H-261.1z M-224.3,251.1c4.5,0,8.2-3.7,8.2-8.2s-3.7-8.2-8.2-8.2h-12v16.4
	H-224.3z M-219.7,288.3c4.5,0,8.2-3.7,8.2-8.2s-3.9-8.2-8.2-8.2h-16.6v16.4H-219.7z M-117.1,308.7l-14.6-25.1h-15.4v25.1h-24.8
	v-94.5h39.8c19.1,0,34.8,15.6,34.8,34.8c0,10.1-4.4,19.1-11.2,25.4l20,34.3H-117.1z M-147.1,262.2h15.4c7.6,0,13.6-5.9,13.6-13.5
	s-6-13.6-13.6-13.6h-15.4V262.2z M-76.5,214.2h24.8v94.5h-24.8V214.2z M17.1,249.3l38.4-35h11.2v94.5H41.8v-48.6l-24.7,22.5
	l-24.8-22.4v48.4h-24.9v-94.5h11.2L17.1,249.3z"/>
</svg>
