<?xml version="1.0" encoding="utf-8"?>
<!-- Generator: Adobe Illustrator 25.2.0, SVG Export Plug-In . SVG Version: 6.00 Build 0)  -->
<svg version="1.1" id="Layer_1" xmlns="http://www.w3.org/2000/svg" xmlns:xlink="http://www.w3.org/1999/xlink" x="0px" y="0px"
	 viewBox="0 0 200 200" style="enable-background:new 0 0 200 200;" xml:space="preserve">
<g>
	<g>
		<path d="M100.1,192.5c-51.4,0-93-41.6-93-93s41.6-93,93-93s93,41.6,93,93v0C193.1,150.9,151.5,192.5,100.1,192.5 M100.1-0.3
			C45-0.3,0.2,44.4,0.2,99.6s44.7,99.9,99.9,99.9S200,154.7,200,99.6C199.9,44.4,155.3-0.2,100.1-0.3"/>
		<path d="M162.7,90.9c-9.1-2.3-16-10.1-23.8-8.4S125.7,96,125.7,96l7.6-2.9C139.2,81.8,163,97,163,97s-0.2-0.1-10.7,4.4
			c-10.9,4.7-24.6,10.1-30.9-2.3c-3.9-7.7-8-31.7-9.5-41.1s-3.3-21.4-4.3-7.3c-1.2,17.4-3.2,28.2-12.9,47.3
			c-11,21.7-60.4,26-30.3,23.2s37.2-18.5,40.6-31.7c2-7.5,3.5-15.1,4.6-22.7c0,0,2.3,16.7,5.3,35.7s32.6,6.1,41.8,2.2
			c5.8-2.3,11.9-3.9,18.1-4.6l5.1-8.1C174.2,92.7,168.4,92.3,162.7,90.9"/>
		<path d="M78,71.3c8.5,3.7,15.2,14.4,18,22.1c-3.1-28.6-24.2-35.9-25.4-35.9C70.6,57.5,69.3,67.4,78,71.3"/>
		<path d="M66,100.4c0.6-7.8-0.1-10.8-1.8-30.7c-1.6-18.5-1-17.4-1-17.4c0.8,0,1.6-0.1,2.4-0.2c-2.4-1.5-7.7-9.6-7.7-9.6l-1.8,4.6
			L58,58.9c0,0,3.6,20.6,3.6,39.7c0,15.7-32.3,22.3-35.2,10.6c-3.1-12.2,1.7-19,0.7-18L27,91.6C-0.4,140.4,64.5,122.3,66,100.4"/>
	</g>
</g>
<polygon points="68.2,140.2 60.5,140.2 60.5,132.8 56.4,132.8 56.4,151.9 60.5,151.9 60.5,143.6 68.2,143.6 68.2,151.9 72.4,151.9 
	72.4,132.8 68.2,132.8 "/>
<g>
	<g>
		<path d="M81.4,144.1c1.1-3.4,2-6.5,2.5-8.4l0,0c0.5,1.7,1.3,4.3,2.7,8.4H81.4z M81.5,132.8L75,151.9h4l1.5-4.4h7l1.6,4.4h4.4
			l-6.8-19.2H81.5z"/>
	</g>
</g>
<polygon points="100.1,132.8 95.9,132.8 95.9,151.9 109.1,151.9 109.6,148.5 100.1,148.5 "/>
<g>
	<g>
		<path d="M117.6,144.1c1.1-3.4,2-6.5,2.5-8.4l0,0c0.5,1.7,1.3,4.3,2.7,8.4H117.6z M117.7,132.8l-6.5,19.2h4.1l1.5-4.4h7l1.6,4.4
			h4.4l-6.8-19.2H117.7z"/>
	</g>
</g>
<polygon points="136.3,132.8 132.1,132.8 132.1,151.9 145.4,151.9 145.8,148.5 136.3,148.5 "/>
</svg>
